<mxfile host="app.diagrams.net" modified="2024-03-21T10:02:19.676Z" agent="Mozilla/5.0 (Windows NT 10.0; Win64; x64) AppleWebKit/537.36 (KHTML, like Gecko) Chrome/122.0.0.0 Safari/537.36 Edg/122.0.0.0" etag="taKJtjghdl9d0BP9niwy" version="24.0.7" type="device">
  <diagram name="Page-1" id="Z7GNOuq5H-ybnbw4XTXk">
    <mxGraphModel dx="911" dy="486" grid="0" gridSize="10" guides="1" tooltips="1" connect="1" arrows="1" fold="1" page="1" pageScale="1" pageWidth="850" pageHeight="1100" math="0" shadow="0">
      <root>
        <mxCell id="0" />
        <mxCell id="1" parent="0" />
        <mxCell id="7iDoJ_NEYtt-uujqmE4P-17" value="" style="rounded=1;whiteSpace=wrap;html=1;dashed=1;fillColor=none;" vertex="1" parent="1">
          <mxGeometry x="360" y="290" width="380" height="100" as="geometry" />
        </mxCell>
        <mxCell id="7iDoJ_NEYtt-uujqmE4P-27" value="" style="endArrow=none;html=1;rounded=0;entryX=0.5;entryY=1;entryDx=0;entryDy=0;strokeWidth=10;strokeColor=#ffffff;" edge="1" parent="1" target="7iDoJ_NEYtt-uujqmE4P-10">
          <mxGeometry width="50" height="50" relative="1" as="geometry">
            <mxPoint x="455" y="440" as="sourcePoint" />
            <mxPoint x="420" y="340" as="targetPoint" />
          </mxGeometry>
        </mxCell>
        <mxCell id="7iDoJ_NEYtt-uujqmE4P-1" value="" style="rounded=1;whiteSpace=wrap;html=1;dashed=1;fillColor=none;" vertex="1" parent="1">
          <mxGeometry x="70" y="290" width="210" height="180" as="geometry" />
        </mxCell>
        <mxCell id="7iDoJ_NEYtt-uujqmE4P-20" value="" style="endArrow=none;html=1;rounded=0;exitX=1;exitY=0.75;exitDx=0;exitDy=0;entryX=0;entryY=0.75;entryDx=0;entryDy=0;strokeWidth=10;strokeColor=#ffffff;" edge="1" parent="1">
          <mxGeometry width="50" height="50" relative="1" as="geometry">
            <mxPoint x="260" y="356" as="sourcePoint" />
            <mxPoint x="380" y="356" as="targetPoint" />
          </mxGeometry>
        </mxCell>
        <mxCell id="7iDoJ_NEYtt-uujqmE4P-19" value="" style="endArrow=none;html=1;rounded=0;exitX=1;exitY=0.25;exitDx=0;exitDy=0;entryX=0;entryY=0.25;entryDx=0;entryDy=0;strokeWidth=10;strokeColor=#ffffff;" edge="1" parent="1">
          <mxGeometry width="50" height="50" relative="1" as="geometry">
            <mxPoint x="260" y="325" as="sourcePoint" />
            <mxPoint x="380" y="325" as="targetPoint" />
          </mxGeometry>
        </mxCell>
        <mxCell id="7iDoJ_NEYtt-uujqmE4P-2" value="Softec AG" style="text;html=1;align=center;verticalAlign=middle;resizable=0;points=[];autosize=1;strokeColor=none;fillColor=none;" vertex="1" parent="1">
          <mxGeometry x="135" y="260" width="80" height="30" as="geometry" />
        </mxCell>
        <mxCell id="7iDoJ_NEYtt-uujqmE4P-7" value="&lt;b&gt;Verantwortliche Fachkraft&lt;/b&gt;&lt;div&gt;Jens Eger&lt;/div&gt;" style="rounded=1;whiteSpace=wrap;html=1;" vertex="1" parent="1">
          <mxGeometry x="90" y="310" width="170" height="60" as="geometry" />
        </mxCell>
        <mxCell id="7iDoJ_NEYtt-uujqmE4P-8" value="&lt;b&gt;Unterstützende Fachkraft&lt;/b&gt;&lt;div&gt;Michael Näf&lt;/div&gt;" style="rounded=1;whiteSpace=wrap;html=1;" vertex="1" parent="1">
          <mxGeometry x="90" y="390" width="170" height="60" as="geometry" />
        </mxCell>
        <mxCell id="7iDoJ_NEYtt-uujqmE4P-9" value="" style="endArrow=none;html=1;rounded=0;exitX=0.5;exitY=1;exitDx=0;exitDy=0;entryX=0.5;entryY=0;entryDx=0;entryDy=0;" edge="1" parent="1" source="7iDoJ_NEYtt-uujqmE4P-7" target="7iDoJ_NEYtt-uujqmE4P-8">
          <mxGeometry width="50" height="50" relative="1" as="geometry">
            <mxPoint x="390" y="330" as="sourcePoint" />
            <mxPoint x="440" y="280" as="targetPoint" />
          </mxGeometry>
        </mxCell>
        <mxCell id="7iDoJ_NEYtt-uujqmE4P-10" value="&lt;b&gt;Kandidat&lt;/b&gt;&lt;div&gt;Simon André Lötscher&lt;/div&gt;" style="rounded=1;whiteSpace=wrap;html=1;" vertex="1" parent="1">
          <mxGeometry x="380" y="310" width="150" height="60" as="geometry" />
        </mxCell>
        <mxCell id="7iDoJ_NEYtt-uujqmE4P-12" value="" style="endArrow=classic;html=1;rounded=0;exitX=1;exitY=0.25;exitDx=0;exitDy=0;entryX=0;entryY=0.25;entryDx=0;entryDy=0;" edge="1" parent="1" source="7iDoJ_NEYtt-uujqmE4P-7" target="7iDoJ_NEYtt-uujqmE4P-10">
          <mxGeometry width="50" height="50" relative="1" as="geometry">
            <mxPoint x="270.0000000000001" y="227.9999999999999" as="sourcePoint" />
            <mxPoint x="330" y="390" as="targetPoint" />
          </mxGeometry>
        </mxCell>
        <mxCell id="7iDoJ_NEYtt-uujqmE4P-14" value="Auftrag" style="edgeLabel;html=1;align=center;verticalAlign=middle;resizable=0;points=[];" vertex="1" connectable="0" parent="7iDoJ_NEYtt-uujqmE4P-12">
          <mxGeometry x="-0.5173" y="2" relative="1" as="geometry">
            <mxPoint x="31" y="-9" as="offset" />
          </mxGeometry>
        </mxCell>
        <mxCell id="7iDoJ_NEYtt-uujqmE4P-13" value="" style="endArrow=classic;html=1;rounded=0;exitX=0;exitY=0.75;exitDx=0;exitDy=0;entryX=1;entryY=0.75;entryDx=0;entryDy=0;" edge="1" parent="1" source="7iDoJ_NEYtt-uujqmE4P-10" target="7iDoJ_NEYtt-uujqmE4P-7">
          <mxGeometry width="50" height="50" relative="1" as="geometry">
            <mxPoint x="909.37" y="164.02" as="sourcePoint" />
            <mxPoint x="340.0000000000001" y="160.00000000000003" as="targetPoint" />
          </mxGeometry>
        </mxCell>
        <mxCell id="7iDoJ_NEYtt-uujqmE4P-15" value="IPA" style="edgeLabel;html=1;align=center;verticalAlign=middle;resizable=0;points=[];" vertex="1" connectable="0" parent="7iDoJ_NEYtt-uujqmE4P-13">
          <mxGeometry x="-0.0001" y="-1" relative="1" as="geometry">
            <mxPoint y="-10" as="offset" />
          </mxGeometry>
        </mxCell>
        <mxCell id="7iDoJ_NEYtt-uujqmE4P-16" value="&lt;b&gt;Berufsbildner&lt;/b&gt;&lt;div&gt;Christian Schambron-Leu&lt;/div&gt;" style="rounded=1;whiteSpace=wrap;html=1;" vertex="1" parent="1">
          <mxGeometry x="570" y="310" width="150" height="60" as="geometry" />
        </mxCell>
        <mxCell id="7iDoJ_NEYtt-uujqmE4P-18" value="bildxzug" style="text;html=1;align=center;verticalAlign=middle;resizable=0;points=[];autosize=1;strokeColor=none;fillColor=none;" vertex="1" parent="1">
          <mxGeometry x="515" y="260" width="70" height="30" as="geometry" />
        </mxCell>
        <mxCell id="7iDoJ_NEYtt-uujqmE4P-22" value="" style="endArrow=none;html=1;rounded=0;entryX=0;entryY=0.5;entryDx=0;entryDy=0;exitX=1;exitY=0.5;exitDx=0;exitDy=0;" edge="1" parent="1" source="7iDoJ_NEYtt-uujqmE4P-10" target="7iDoJ_NEYtt-uujqmE4P-16">
          <mxGeometry width="50" height="50" relative="1" as="geometry">
            <mxPoint x="370" y="390" as="sourcePoint" />
            <mxPoint x="420" y="340" as="targetPoint" />
          </mxGeometry>
        </mxCell>
        <mxCell id="7iDoJ_NEYtt-uujqmE4P-23" value="&lt;div&gt;&lt;b&gt;Hauptexperte&lt;/b&gt;&lt;/div&gt;&lt;div&gt;Dani Bomatter&lt;/div&gt;" style="rounded=1;whiteSpace=wrap;html=1;" vertex="1" parent="1">
          <mxGeometry x="570" y="410" width="150" height="60" as="geometry" />
        </mxCell>
        <mxCell id="7iDoJ_NEYtt-uujqmE4P-24" value="&lt;b&gt;Nebenexperte&lt;/b&gt;&lt;div&gt;Stefan Spirgi&lt;/div&gt;" style="rounded=1;whiteSpace=wrap;html=1;" vertex="1" parent="1">
          <mxGeometry x="570" y="490" width="150" height="60" as="geometry" />
        </mxCell>
        <mxCell id="7iDoJ_NEYtt-uujqmE4P-25" value="" style="endArrow=classic;html=1;rounded=0;entryX=0;entryY=0.5;entryDx=0;entryDy=0;exitX=0.5;exitY=1;exitDx=0;exitDy=0;" edge="1" parent="1" source="7iDoJ_NEYtt-uujqmE4P-10" target="7iDoJ_NEYtt-uujqmE4P-24">
          <mxGeometry width="50" height="50" relative="1" as="geometry">
            <mxPoint x="370" y="390" as="sourcePoint" />
            <mxPoint x="420" y="340" as="targetPoint" />
            <Array as="points">
              <mxPoint x="455" y="520" />
            </Array>
          </mxGeometry>
        </mxCell>
        <mxCell id="7iDoJ_NEYtt-uujqmE4P-29" value="IPA" style="edgeLabel;html=1;align=center;verticalAlign=middle;resizable=0;points=[];" vertex="1" connectable="0" parent="7iDoJ_NEYtt-uujqmE4P-25">
          <mxGeometry x="0.6" y="2" relative="1" as="geometry">
            <mxPoint x="-2" y="-8" as="offset" />
          </mxGeometry>
        </mxCell>
        <mxCell id="7iDoJ_NEYtt-uujqmE4P-26" value="" style="endArrow=classic;html=1;rounded=0;entryX=0;entryY=0.5;entryDx=0;entryDy=0;exitX=0.5;exitY=1;exitDx=0;exitDy=0;" edge="1" parent="1" source="7iDoJ_NEYtt-uujqmE4P-10" target="7iDoJ_NEYtt-uujqmE4P-23">
          <mxGeometry width="50" height="50" relative="1" as="geometry">
            <mxPoint x="370" y="390" as="sourcePoint" />
            <mxPoint x="420" y="340" as="targetPoint" />
            <Array as="points">
              <mxPoint x="455" y="440" />
            </Array>
          </mxGeometry>
        </mxCell>
        <mxCell id="7iDoJ_NEYtt-uujqmE4P-28" value="IPA" style="edgeLabel;html=1;align=center;verticalAlign=middle;resizable=0;points=[];" vertex="1" connectable="0" parent="7iDoJ_NEYtt-uujqmE4P-26">
          <mxGeometry x="0.3091" y="3" relative="1" as="geometry">
            <mxPoint x="9" y="-7" as="offset" />
          </mxGeometry>
        </mxCell>
      </root>
    </mxGraphModel>
  </diagram>
</mxfile>
